<svg xmlns="http://www.w3.org/2000/svg" viewBox="0 0 23.06 22.75"><defs><style>.cls-1{fill:#231f20;}.cls-1,.cls-3{fill-rule:evenodd;}.cls-2,.cls-3{fill:#f7941d;}</style></defs><title>Logo24x24</title><g id="Layer_2" data-name="Layer 2"><g id="Layer_1-2" data-name="Layer 1"><path class="cls-1" d="M9.63,12.42c-1.36,1.36-2.24,1.23-3.06.41a3.94,3.94,0,0,1-.75-1l-1.29.94a5.73,5.73,0,0,0,1,1.39C7.12,15.68,8.87,16,11,13.9l5.08-5.07L16,8.74a2.81,2.81,0,0,1-1.43-1.26ZM0,12.48a10.3,10.3,0,0,0,20.61,0,10.19,10.19,0,0,0-1.2-4.82,2.8,2.8,0,0,1-2.12,1.26,8,8,0,1,1-3-3.18,2.8,2.8,0,0,1,1.39-2A10.31,10.31,0,0,0,0,12.48Z"/><ellipse class="cls-2" cx="17.11" cy="6.06" rx="2.08" ry="2.11"/><path class="cls-3" d="M21.41,5.78a4.31,4.31,0,0,0-4.23-4.09l-.41,1.09.37,0A3.25,3.25,0,0,1,20.35,6c0,.07,0,.13,0,.19Z"/><path class="cls-3" d="M17.81,0l-.39,1A5,5,0,0,1,22,5.52l1-.42A6,6,0,0,0,17.81,0Z"/></g></g></svg>